<svg width="626" height="136" viewBox="0 0 626 136" fill="none" xmlns="http://www.w3.org/2000/svg">
<g clip-path="url(#clip0_282_1670)">
<path d="M0.115997 199.073C6.45395 195.977 13.3561 194.76 20.1075 193.013C24.2907 191.927 28.3668 190.418 32.4867 189.089C32.8953 188.958 33.2796 188.749 33.6444 188.588C33.6347 188.408 33.6639 188.291 33.6201 188.247C25.7937 180.79 22.5785 171.381 22.1553 160.843C21.8343 152.772 23.3325 144.999 26.3482 137.518C27.1605 135.507 27.895 133.463 28.863 131.53C29.3932 130.464 30.1811 129.403 31.1199 128.693C32.5354 127.627 34.2135 127.709 35.7408 128.639C37.3168 129.598 38.0756 131.092 37.8956 132.898C37.7838 134.018 37.3995 135.137 37.0055 136.203C33.3574 146.08 32.4284 156.141 34.8604 166.441C35.7603 170.262 37.4092 173.776 39.3014 177.193C40.4104 179.198 41.4611 181.238 42.6333 183.438C43.8834 182.533 45.0605 181.637 46.2814 180.814C47.4293 180.041 48.6891 179.899 49.9198 180.6C51.1455 181.301 51.6417 182.455 51.5979 183.842C51.5882 184.236 51.5833 184.67 51.4179 185.01C50.5813 186.753 49.8857 188.598 48.7913 190.165C46.2328 193.83 42.6236 196.288 38.455 197.71C32.5208 199.73 26.5476 201.696 20.4821 203.259C13.6772 205.016 7.09601 207.201 0.976947 210.696C0.719149 210.842 0.407845 210.906 0.125726 211.008C0.115997 207.036 0.115997 203.054 0.115997 199.073Z" fill="white" fill-opacity="0.4"/>
<path d="M0.115997 120.534C4.8342 120.174 10.0242 123.465 12.0331 128.269C14.2317 133.526 13.8961 138.778 11.2111 143.738C8.66713 148.445 4.3186 151.429 0.115997 154.495C0.115997 150.601 0.115997 146.712 0.115997 142.818C2.15893 142.2 3.803 140.978 5.10659 139.333C8.32664 135.263 6.56583 127.948 0.617002 127.845C0.451622 127.84 0.286242 127.748 0.115997 127.694C0.115997 125.309 0.115997 122.919 0.115997 120.534Z" fill="white" fill-opacity="0.4"/>
<path d="M292.362 106.413C297.246 101.098 302.222 96.2397 308.122 92.3408C307.903 92.0341 307.787 91.8053 307.611 91.6301C303.706 87.6046 302.081 82.6787 301.954 77.1783C301.945 76.6526 302.003 76.1123 302.139 75.6061C302.441 74.4963 303.136 73.7321 304.314 73.5471C305.525 73.3524 306.561 73.7711 307.145 74.8273C307.582 75.6207 307.864 76.5358 308.039 77.4363C308.759 81.1113 309.737 84.6549 312.159 87.6582C312.952 88.6414 313.526 88.8556 314.606 88.0135C318.123 85.2682 321.761 82.6787 325.268 79.9237C328.639 77.2757 332.808 78.0594 334.734 81.8999C335.322 83.0778 335.746 84.358 336.101 85.6284C337.647 91.1628 339.126 96.7167 340.658 102.261C341.188 104.179 341.801 106.072 342.366 107.98C344.306 114.566 348.533 119.414 354.005 123.318C354.181 123.444 354.38 123.537 354.701 123.717C354.93 123.259 355.144 122.841 355.343 122.417C357.751 117.248 359.906 111.942 362.62 106.939C365.733 101.205 369.259 95.6799 372.776 90.1747C374.673 87.2006 378.876 87.4489 380.68 90.6663C381.853 92.7594 382.723 95.0958 383.312 97.4274C384.28 101.234 384.951 105.123 385.676 108.988C386.906 115.559 389.037 121.809 392.233 127.689C394.134 131.184 396.036 134.679 397.972 138.154C401.363 144.244 405.716 149.593 410.969 154.13C413.591 156.393 416.539 158.345 419.554 160.063C424.083 162.643 428.796 164.887 433.432 167.272C433.665 167.394 433.908 167.506 434.157 167.598C435.981 168.255 436.18 168.669 435.382 170.47C434.57 172.3 433.077 173.41 431.121 173.313C428.898 173.205 426.568 173.021 424.506 172.266C420.201 170.689 415.95 168.888 411.835 166.858C403.975 162.969 397.919 156.885 392.68 150.012C387.636 143.392 383.317 136.28 379.523 128.862C376.011 121.989 374.493 114.547 373.481 106.978C373.384 106.233 373.263 105.493 373.141 104.753C373.131 104.69 373.024 104.641 372.869 104.5C372.64 104.88 372.397 105.23 372.212 105.605C368.608 113.062 365.446 120.685 363.705 128.828C362.707 133.496 358.558 135.959 354.156 134.173C344.053 130.064 335.77 123.805 331.893 113.164C329.568 106.778 327.822 100.182 325.818 93.6794C325.677 93.2169 325.555 92.7496 325.37 92.0974C324.908 92.3846 324.548 92.589 324.203 92.8227C322.107 94.2245 320.088 95.7481 317.914 97.0088C309.119 102.105 302.027 109.046 295.874 117.039C295.281 117.808 294.697 118.592 294.026 119.292C291.331 122.116 287.304 122.013 285.115 118.786C283.986 117.126 283.252 115.063 282.829 113.077C279.828 99.0288 280.246 85.0443 283.991 71.1815C284.808 68.1539 285.718 65.1409 286.798 62.196C289.867 53.819 294.94 46.8535 301.4 40.6814C314.232 28.4249 329.704 20.9289 346.082 14.8882C352.006 12.7027 357.945 10.5172 363.724 7.99093C366.808 6.64262 369.663 4.69559 372.465 2.79237C375.349 0.830748 377.139 -1.98269 377.772 -5.47273C377.913 -6.2564 378.122 -7.02548 378.346 -7.78969C378.667 -8.89462 379.289 -9.73671 380.554 -9.71238C381.799 -9.68804 382.504 -8.86542 382.748 -7.75075C383.365 -4.9081 383.477 -2.0557 382.641 0.777213C381.546 4.45708 379.377 7.4847 376.492 9.88928C374.094 11.885 371.555 13.8417 368.778 15.2192C362.848 18.1641 356.817 20.9338 350.669 23.3821C341.894 26.877 333.566 31.2432 325.37 35.8771C322.967 37.2352 320.779 39.0313 318.658 40.8226C315.55 43.4413 312.578 46.2207 309.572 48.9611C303.759 54.257 299.654 60.6822 297.129 68.1052C294.313 76.3849 292.197 84.835 291.803 93.6015C291.628 97.515 291.993 101.453 292.124 105.381C292.139 105.619 292.236 105.863 292.362 106.413Z" fill="white" fill-opacity="0.4"/>
<path d="M511.287 79.9195C508.845 79.7734 506.457 79.8026 504.127 79.4424C500.24 78.8486 496.655 77.3056 493.353 75.1833C488.887 72.3066 486.869 67.8333 485.701 62.8976C484.549 58.0203 484.831 53.1382 486.11 48.3242C488.416 39.655 492.944 32.3732 499.807 26.5662C505.236 21.9761 511.233 18.2475 517.469 14.884C517.965 14.6163 518.456 14.3292 518.889 14.0858C517.795 12.3237 516.754 10.6493 515.689 8.94077C513.67 9.37885 511.549 9.9581 509.39 10.2891C505.348 10.9121 501.456 10.3767 497.842 8.34693C492.268 5.21222 490.259 -0.127487 492.487 -6.10484C494.549 -11.6539 498.514 -15.7231 503.091 -19.2326C504.72 -20.4836 506.53 -20.323 507.721 -19.1791C508.84 -18.1034 508.971 -16.4435 507.892 -14.662C506.792 -12.8513 505.469 -11.172 504.384 -9.35149C503.217 -7.385 502.074 -5.37957 501.179 -3.28165C500.445 -1.55854 500.843 -0.497417 502.531 0.36414C503.956 1.08941 505.566 1.72219 507.138 1.83901C509.497 2.01424 511.89 1.69298 514.268 1.59076C515.032 1.55669 515.232 1.09428 515.416 0.412819C515.942 -1.50013 516.525 -3.39848 517.226 -5.25302C517.513 -6.00749 518.067 -6.72302 518.656 -7.28765C519.736 -8.32444 521.083 -8.54348 522.474 -8.00319C523.831 -7.47749 524.595 -6.40176 524.717 -4.97557C524.785 -4.15295 524.658 -3.30599 524.537 -2.47851C524.216 -0.336784 523.729 1.78059 523.53 3.93205C523.316 6.25388 523.933 8.36154 526.088 9.64657C526.536 9.91429 527.338 10.0457 527.757 9.82667C531.346 7.93319 534.985 6.10299 538.404 3.93692C541.974 1.67351 543.395 -1.98203 543.891 -5.96855C541.853 -6.41637 539.844 -6.68895 537.947 -7.30226C527.353 -10.7144 522.499 -19.6512 525.315 -30.4864C527.63 -39.3989 533.988 -43.8479 542.539 -45.5272C549.533 -46.8998 555.9 -45.0063 561.46 -40.6693C569.612 -34.3172 573.659 -25.7357 574.564 -15.5625C574.909 -11.6685 574.783 -7.79388 573.922 -3.95338C571.845 5.29498 566.402 11.7932 557.856 15.7164C549.971 19.3379 541.649 20.1605 533.097 19.3379C531.911 19.2259 530.69 19.1675 529.561 18.8268C527.971 18.3498 526.691 18.7586 525.329 19.5667C518.296 23.743 511.321 28.0021 505.051 33.3175C500.43 37.2359 496.689 41.8211 494.306 47.4334C492.458 51.7947 491.558 56.3021 492.599 61.0236C493.591 65.5261 495.858 69.2303 499.778 71.7614C503.577 74.2098 507.571 76.2542 512.333 77.3397C512.629 75.636 512.916 74.0151 513.189 72.3893C513.335 71.5181 513.369 70.6176 513.617 69.7803C514.254 67.6094 516.165 66.3682 518.247 66.6894C520.246 66.9961 521.696 68.7241 521.769 70.8999C521.774 71.0751 521.793 71.2601 521.759 71.4304C520.504 78.5906 518.417 85.3711 512.96 90.5989C510.012 93.4221 506.534 95.3642 502.546 96.0992C496.033 97.3015 489.486 98.3237 482.934 99.3069C477.16 100.173 471.401 101.04 465.822 102.851C460.865 104.457 457.528 107.747 456.03 112.668C455.432 114.64 455.485 116.835 455.427 118.933C455.388 120.432 455.067 121.016 453.53 121.089C451.361 121.191 449.819 120.048 448.685 118.349C446.837 115.584 445.918 112.527 446.273 109.173C447.041 101.858 450.762 96.5275 457.275 93.2079C462.821 90.3798 468.794 88.8709 474.961 88.4426C482.759 87.9023 490.585 87.727 498.392 87.3181C500.279 87.2208 502.191 86.9871 504.025 86.5296C507.639 85.634 509.944 83.2245 511.287 79.9195ZM539.066 11.9927C545.447 12.1582 551.537 11.2529 556.946 7.69468C560.624 5.2755 563.148 1.98017 564.476 -2.24C565.731 -6.23627 565.925 -10.3007 565.492 -14.4332C564.729 -21.7443 562.112 -28.1208 556.363 -32.964C551.333 -37.1988 544.995 -37.7099 539.362 -34.3561C536.697 -32.7693 534.99 -30.4913 534.474 -27.4442C533.238 -20.1088 537.11 -14.7886 544.061 -11.4884C544.061 -12.0043 544.066 -12.4765 544.061 -12.9437C544.047 -14.2677 543.944 -15.6014 544.037 -16.9157C544.124 -18.2397 544.776 -19.2667 546.138 -19.6756C547.354 -20.0407 548.716 -19.6026 549.475 -18.3808C550.02 -17.4998 550.56 -16.4776 550.657 -15.4749C550.954 -12.4083 551.348 -9.30282 551.138 -6.25086C550.652 0.919044 547.486 6.6725 541.264 10.5471C540.52 11.0095 539.8 11.5108 539.066 11.9927Z" fill="white" fill-opacity="0.4"/>
<path d="M422.405 -71.9591C422.979 -69.2576 423.63 -66.9601 423.927 -64.6237C424.652 -58.8605 423.767 -53.1557 422.988 -47.4607C421.198 -34.328 417.73 -21.575 414.267 -8.81718C412.297 -1.54993 410.75 5.82928 410.993 13.4081C411.091 16.4259 411.543 19.5022 412.331 22.413C413.654 27.2855 416.884 30.4445 421.87 31.7831C426.432 33.0097 430.999 33.3018 435.65 32.4694C444.05 30.9702 451.784 27.8842 458.676 22.8122C464.377 18.6212 468.516 13.2572 470.088 6.26249C470.559 4.16457 470.516 1.84276 470.185 -0.298965C469.416 -5.29308 466.512 -8.58355 461.575 -10.0097C456.196 -11.5625 450.84 -11.5917 445.524 -9.81504C440.567 -8.16007 436.292 -5.35149 432.678 -1.6132C430.09 1.06882 427.974 4.22299 428.981 8.12677C430.455 13.8218 433.13 18.8354 438.763 21.6245C439.249 21.863 439.575 22.4179 439.979 22.8268C439.512 23.1091 439.079 23.518 438.568 23.6494C433.582 24.9588 429.205 23.7565 425.474 20.2567C422.906 17.8473 420.809 15.0533 419.253 11.8894C416.801 6.89527 416.645 1.80382 419.16 -3.18056C420.225 -5.28822 421.485 -7.4494 423.159 -9.06543C433.636 -19.1607 445.957 -23.1716 460.359 -19.8325C460.617 -19.7741 460.87 -19.6864 461.123 -19.6086C470.258 -16.9898 475.642 -10.993 477.486 -1.67162C478.634 4.14511 477.87 9.68439 475.448 15.0192C473.492 19.3222 470.914 23.2503 467.48 26.5067C457.387 36.0811 445.383 41.2505 431.452 41.747C427.716 41.8784 424.058 41.1677 420.498 40.0336C410.891 36.9622 405.847 30.0016 404.004 20.4271C402.608 13.1598 403.542 5.95098 405.229 -1.13618C407.37 -10.1217 409.884 -19.0147 412.034 -27.9954C414.491 -38.2416 416.358 -48.5997 416.354 -59.1866C416.354 -61.5912 415.853 -64.0104 415.425 -66.3906C415.074 -68.3474 413.746 -69.4231 411.776 -69.7103C410.638 -69.8758 409.495 -70.017 408.381 -70.2847C406.227 -70.8006 404.714 -72.0711 404.32 -74.3296C403.931 -76.5735 404.816 -78.4232 406.723 -79.5233C408.187 -80.3654 409.85 -81.0517 411.509 -81.3535C422.234 -83.3005 432.809 -82.7456 443.121 -79.0171C447.98 -77.2599 452.163 -74.4221 455.865 -70.8493C461.084 -65.8065 462.932 -59.3862 463.346 -52.3915C463.351 -52.3477 463.351 -52.3039 463.346 -52.2601C463.21 -51.2671 463.312 -49.914 462.135 -49.7485C461.493 -49.656 460.544 -50.5224 459.999 -51.1795C458.963 -52.4353 458.073 -53.8226 457.203 -55.205C451.254 -64.6432 442.43 -69.5351 431.661 -71.2241C428.65 -71.6817 425.542 -71.7157 422.405 -71.9591Z" fill="white" fill-opacity="0.4"/>
<path d="M266.339 145.129C263.148 147.115 259.836 149.15 256.572 151.252C256.314 151.418 256.149 152.158 256.3 152.45C257.365 154.523 258.333 156.68 259.69 158.549C261.558 161.119 263.771 163.431 265.77 165.909C266.451 166.755 267.079 167.714 267.468 168.722C268.105 170.392 267.735 171.978 266.388 173.2C265.075 174.393 263.572 174.432 261.928 173.847C261.237 173.599 260.347 173.497 259.656 173.706C255.05 175.094 250.448 176.51 245.9 178.077C244.339 178.618 242.933 179.62 241.469 180.433C240.89 180.755 240.365 181.178 239.781 181.475C238.341 182.215 236.882 182.268 235.515 181.309C234.183 180.375 233.779 179.027 233.969 177.464C234.178 175.756 234.523 174.047 234.577 172.334C234.722 167.52 234.737 162.701 234.82 157.882C234.839 156.835 234.941 155.794 235.019 154.475C232.553 155.185 230.247 155.75 228.01 156.524C222.752 158.344 217.542 160.301 212.289 162.136C210.499 162.764 208.661 163.275 206.812 163.703C203.509 164.473 200.309 162.078 199.783 158.529C199.433 156.183 200.114 154.061 201.287 152.07C203.242 148.76 205.718 145.864 208.685 143.459C213.53 139.541 218.364 135.588 223.447 132.001C228.608 128.36 234.017 125.075 239.416 121.784C241.746 120.363 244.276 119.258 246.771 118.138C250.473 116.474 253.887 114.415 256.82 111.582C258.08 110.365 259.35 110.165 260.536 110.886C261.723 111.606 262.287 113.091 261.568 114.624C260.867 116.118 260.011 117.686 258.819 118.771C256.611 120.786 254.14 122.514 251.723 124.281C248.551 126.603 245.307 128.823 242.135 131.135C239.275 133.218 236.42 135.301 233.648 137.497C228.034 141.936 222.475 146.443 216.92 150.955C216.18 151.554 215.592 152.333 214.726 153.253C215.621 153.131 216.297 153.092 216.944 152.941C222.878 151.569 228.808 150.162 234.742 148.799C235.622 148.595 235.963 148.113 236.055 147.256C236.206 145.849 236.41 144.447 236.654 143.055C237.062 140.699 238.687 139.254 240.652 139.429C242.656 139.609 244.164 141.254 244.013 143.635C243.828 146.628 243.449 149.622 242.894 152.571C241.625 159.303 241.659 166.118 241.323 172.913C241.318 172.986 241.391 173.069 241.44 173.161C246.878 172.129 252.316 171.092 258.012 170.012C257.467 169.296 257.156 168.878 256.84 168.464C253.444 164.015 250.404 159.362 248.819 153.92C248.571 153.073 248.371 152.206 248.259 151.335C247.933 148.687 248.887 147.105 251.192 145.815C255.74 143.265 260.225 140.607 264.754 138.027C265.508 137.594 265.775 137.093 265.683 136.207C265.542 134.892 265.498 133.559 265.551 132.235C265.615 130.643 266.466 129.567 267.726 129.241C269.039 128.905 270.425 129.446 271.135 130.911C271.88 132.449 272.619 134.08 272.872 135.749C274.195 144.316 277.293 152.391 279.575 160.69C282.775 172.348 283.145 183.88 278.923 195.357C278.373 196.847 277.721 198.307 276.987 199.714C272.633 208.057 265.707 212.399 256.353 213.197C249.728 213.761 243.21 213.056 236.668 212.267C232.149 211.722 227.626 211.187 223.088 210.875C220.456 210.695 217.79 210.856 215.154 211.06C211.2 211.362 208.155 213.289 205.99 216.628C204.58 218.804 203.427 221.077 203.091 223.682C202.843 225.633 203.553 226.3 205.489 226.071C206.029 226.008 206.584 226.091 207.133 226.106C207.046 226.695 207.075 227.332 206.856 227.868C205.883 230.262 203.582 231.484 200.82 231.148C197.492 230.744 195.007 228.476 194.243 225.113C193.587 222.241 194.034 219.466 195.187 216.818C198.996 208.086 205.606 203.286 215.164 202.498C221.069 202.011 226.906 202.663 232.757 203.189C238.39 203.695 244.013 204.445 249.655 204.659C253.06 204.786 256.509 204.197 259.914 203.744C262.331 203.423 264.447 202.255 266.203 200.546C273.48 193.483 277.332 185.004 276.408 174.738C276.179 172.173 275.498 169.584 274.628 167.15C271.987 159.819 269.16 152.581 266.339 145.129Z" fill="white" fill-opacity="0.4"/>
<path d="M220.631 26.4485C220.971 14.2845 222.903 3.08912 227.587 -7.49295C232.208 -17.9387 239.669 -25.6684 250.224 -30.2634C256.256 -32.887 262.351 -35.1163 269.126 -34.7172C282.405 -33.9335 291.954 -21.2584 288.982 -8.23283C288.126 -4.47994 286.058 -1.42311 283.427 1.26378C277.726 7.08051 271.787 12.6246 265.123 17.351C260.76 20.4468 256.509 23.6886 252.175 26.8233C251.319 27.4415 251.153 27.9818 251.747 28.8774C253.697 31.8223 255.546 34.8402 257.54 37.7558C258.921 39.7759 260.76 41.2653 263.236 41.8154C263.62 41.8981 264.004 42.049 264.345 42.2486C264.992 42.6283 266.008 42.9544 266.154 43.4947C266.577 45.0766 266.913 46.8144 265.191 48.0118C264.972 48.1627 264.787 48.3574 264.559 48.4937C256.874 53.0205 250.604 59.3094 243.94 65.1066C242.704 66.1775 241.498 67.2922 240.185 68.2559C237.641 70.1202 235.919 69.8671 233.905 67.4723C233.735 67.2727 233.55 67.0682 233.336 66.9222C231.142 65.4668 229.746 63.3494 228.832 60.9838C225.461 52.2758 222.27 43.5044 221.215 34.1441C220.894 31.3745 220.787 28.5854 220.631 26.4485ZM255.497 43.9036C255.273 43.6943 255.161 43.5628 255.03 43.4655C250.21 39.9998 246.8 35.3464 244.134 30.1479C241.829 25.6502 241.294 20.7973 242.174 15.8178C242.413 14.4646 243.074 13.3207 244.31 12.6101C245.477 11.9335 246.81 12.0892 247.88 12.9897C249.261 14.1482 249.412 14.8102 248.814 16.4944C248.687 16.8497 248.794 17.2926 248.794 17.4971C252.564 15.1655 256.188 12.7074 260.006 10.6095C266.952 6.79818 273.159 1.99878 279.122 -3.15109C280.187 -4.07106 281.141 -5.13706 282.031 -6.2274C283.378 -7.88236 284.088 -9.80505 284.186 -11.9614C284.648 -21.8376 275.858 -29.5527 265.931 -27.2844C252.763 -24.2811 242.51 -17.0042 236.775 -4.41666C230.734 8.83282 228.384 22.7978 230.568 37.235C231.648 44.3757 233.735 51.3655 235.374 58.4235C235.408 58.5695 235.54 58.6961 235.681 58.92C240.71 51.8279 247.661 47.4228 255.497 43.9036Z" fill="white" fill-opacity="0.4"/>
<path d="M574.919 70.0372C575.046 69.7987 575.138 69.6478 575.216 69.492C575.834 68.2264 576.831 67.4768 578.256 67.5352C579.788 67.5985 580.926 68.4796 581.291 69.9009C581.768 71.77 581.977 73.7122 582.225 75.6349C582.405 77.0367 582.439 78.4532 582.556 79.8647C582.775 82.5127 584.001 84.6252 586.248 85.9881C587.97 87.0298 589.867 87.7697 591.647 88.7188C591.919 88.8649 592.192 89.4733 592.099 89.7508C591.54 91.4641 590.12 92.1553 588.49 92.4717C583.344 93.4696 577.59 90.184 575.557 85.0974C574.175 81.6414 574.024 78.0297 574.37 74.3888C574.467 73.3374 574.18 72.9382 573.188 72.6413C569.335 71.4877 566.529 69.0442 564.87 65.3838C563.08 61.4265 563.78 57.4302 566.923 54.4221C570.911 50.601 575.668 49.4279 581.004 50.8736C582.357 51.2387 583.68 51.8082 584.935 52.4458C595.859 57.9705 602.47 70.7284 601.035 82.8534C599.697 94.1948 594.585 103.477 586.345 111.178C583.256 114.064 579.696 116.143 575.571 117.17C570.561 118.416 566.081 116.415 563.625 111.854C562.073 108.978 561.577 105.833 561.524 102.63C561.46 99.1403 561.577 95.6454 561.601 92.1505C561.616 90.5734 561.601 88.9914 561.601 87.3657C561.193 87.3657 561.042 87.317 560.954 87.3705C556.217 90.3592 551.683 93.5766 548.755 98.5367C547.442 100.761 546.197 103.054 546.523 105.746C546.634 106.685 547.072 107.702 547.661 108.447C548.814 109.912 549.178 111.178 548.478 112.57C547.797 113.923 546.245 114.76 544.596 114.59C542.408 114.366 540.817 113.139 539.659 111.368C537.611 108.243 537.295 104.753 537.806 101.16C537.986 99.8996 538.341 98.6535 538.721 97.4318C538.935 96.7454 538.789 96.395 538.283 95.8595C536.814 94.297 535.175 92.7589 534.187 90.9044C532.616 87.9546 531.269 84.8345 530.272 81.6511C527.324 72.2324 524.838 62.6969 523.822 52.8352C523.797 52.5772 523.715 52.3193 523.627 51.8958C523.102 52.0175 522.615 52.1538 522.119 52.2463C520.723 52.5091 519.463 52.0029 518.919 50.932C518.286 49.6908 518.598 48.5177 519.57 47.6805C521.375 46.1229 523.204 44.5653 525.189 43.2608C527.382 41.82 530.184 42.6718 531.337 45.1542C532.105 46.8141 532.616 48.6491 532.927 50.4599C535.145 63.3394 538.385 75.9561 542.451 88.3684C542.544 88.6556 542.66 88.9379 542.801 89.3321C543.025 89.1521 543.21 89.0498 543.337 88.8989C547.116 84.3283 551.99 81.3786 557.525 79.5046C563.98 77.3239 568.1 80.0935 568.411 86.9081C568.557 90.0769 568.144 93.2651 568.144 96.4436C568.144 99.8363 568.251 103.239 568.489 106.622C568.562 107.668 569.092 108.759 569.656 109.679C570.853 111.626 572.628 112.482 574.958 112.078C577.415 111.65 579.667 110.691 581.51 109.07C591.146 100.596 596.127 90.0818 595.232 77.0708C595.183 76.3699 595.101 75.6446 594.872 74.9826C592.318 67.6715 587.756 62.2539 580.27 59.6401C578.139 58.9002 576.101 59.09 574.185 60.3556C570.566 62.7407 570.916 67.9831 574.919 70.0372Z" fill="white" fill-opacity="0.4"/>
<path d="M602.047 -51.5296C598.467 -49.4998 595.12 -47.6453 591.837 -45.6836C591.487 -45.4743 591.341 -44.5933 591.409 -44.0627C592.075 -38.7571 592.853 -33.4612 593.515 -28.1507C595.388 -13.0613 592.994 1.57058 588.461 15.9055C587.498 18.9429 585.975 21.8926 584.249 24.5795C579.944 31.287 575.065 37.571 569.121 42.9594C566.602 45.2472 564.272 47.7442 561.747 50.0222C559.456 52.0909 557.121 54.1451 554.597 55.912C553.24 56.8611 551.503 57.4939 549.854 57.7519C546.81 58.2289 544.626 55.6978 545.589 52.7675C546.119 51.1564 547.14 49.5549 548.347 48.3527C552.379 44.3223 556.465 40.3309 560.765 36.5926C566.213 31.8565 570.819 26.4097 575.153 20.6952C577.39 17.7455 579.127 14.5134 580.173 10.9552C582.541 2.88969 584.735 -5.22452 585.416 -13.6454C586.005 -20.864 585.207 -27.9463 583.174 -34.8971C582.454 -37.3601 581.7 -39.8134 581.116 -42.3056C579.822 -47.8156 581.763 -51.7535 587.084 -53.6956C591.477 -55.2971 596.015 -56.4945 600.524 -57.7503C601.555 -58.0375 601.847 -58.4269 601.837 -59.4345C601.828 -60.7974 601.886 -62.1895 602.154 -63.5184C602.732 -66.3659 605.082 -68.1425 607.767 -67.9284C610.432 -67.7191 612.393 -65.5579 612.548 -62.6325C612.577 -62.0581 612.548 -61.4837 612.534 -60.9094C612.198 -46.8421 612.417 -32.7895 613.56 -18.7612C613.745 -16.4686 614.037 -14.1857 614.217 -11.8979C614.416 -9.39115 613.701 -7.93088 612.154 -7.51227C610.603 -7.09366 609.104 -8.10612 608.044 -10.3355C606.521 -13.5383 605.982 -16.9991 605.578 -20.4697C604.449 -30.2194 603.389 -39.9789 602.304 -49.7334C602.251 -50.1667 602.178 -50.595 602.047 -51.5296Z" fill="white" fill-opacity="0.4"/>
<path d="M93.478 135.457C94.9129 133.899 96.2408 132.22 97.8168 130.823C99.422 129.401 101.158 128.034 103.051 127.041C106.728 125.113 110.089 126.792 110.751 130.905C111.855 137.74 111.981 144.637 111.422 151.534C111.222 154.002 110.969 156.465 110.644 158.918C110.512 159.911 110.25 160.924 109.821 161.824C109.233 163.056 107.866 163.309 106.995 162.267C106.261 161.391 105.604 160.257 105.415 159.152C104.281 152.537 103.294 145.893 102.253 139.258C102.195 138.874 102.136 138.494 102.039 137.842C101.543 138.26 101.168 138.523 100.857 138.844C98.8334 140.947 96.8732 143.108 94.7913 145.153C93.8282 146.097 92.7338 147.007 91.5372 147.606C88.7306 149.013 85.6614 147.694 84.7129 144.705C84.3432 143.547 84.2167 142.276 84.2021 141.054C84.1535 136.99 84.1973 132.921 84.2216 128.851C84.2313 127.041 83.6525 126.515 81.8722 127.011C76.045 128.642 70.962 131.606 66.774 135.968C59.6383 143.396 57.464 152.337 59.2783 162.301C60.2609 167.69 64.41 170.153 69.7022 168.741C72.3872 168.025 74.8095 166.765 76.8719 164.876C78.1755 163.688 78.2095 163.187 77.2659 161.673C77.2172 161.6 77.1832 161.513 77.12 161.454C76.3271 160.739 75.5343 160.028 74.7414 159.317C73.934 160.228 72.9174 161.031 72.3823 162.082C71.8083 163.216 71.0106 163.976 69.8967 163.888C68.9969 163.82 67.9705 163.275 67.3333 162.618C66.8275 162.097 66.5891 161.07 66.6329 160.296C66.8129 157.108 67.6544 154.095 69.7411 151.583C71.9688 148.906 75.291 148.122 78.4965 149.397C83.813 151.515 88.1858 159.449 86.8774 165.012C86.4883 166.663 85.6516 168.42 84.5037 169.646C80.1357 174.324 74.7998 177.493 68.3986 178.413C59.6383 179.669 52.2108 175.001 49.4382 166.599C45.7853 155.55 47.2931 138.669 61.5256 127.892C67.4598 123.4 74.1723 120.713 81.5268 119.637C83.8616 119.296 86.1089 119.584 88.1518 120.888C88.3707 121.029 88.6285 121.122 88.8814 121.2C91.581 122.017 92.549 123.215 92.6706 126.043C92.7824 128.647 92.8213 131.256 92.8992 133.865C92.9138 134.288 92.9478 134.717 92.9721 135.14C93.1375 135.247 93.3078 135.35 93.478 135.457Z" fill="white" fill-opacity="0.4"/>
<path d="M212.109 123.366C209.439 122.655 206.705 122.115 204.108 121.19C199.589 119.583 195.464 117.164 191.548 114.409C179.174 105.696 168.945 94.9341 160.953 82.0789C158.161 77.591 155.88 72.8549 155.14 67.5298C155.019 66.6585 154.975 65.7677 155.009 64.8867C155.189 59.8634 158.468 56.4074 163.497 56.4318C165.958 56.4464 168.512 56.9915 170.856 57.7801C175.58 59.3669 179.821 61.9126 183.703 65.0717C184.753 65.9284 186.076 66.4443 187.137 67.2816C198.713 76.4131 208.782 86.9319 216.628 99.4804C218.768 102.902 220.612 106.485 221.385 110.496C221.618 111.703 221.764 112.954 221.721 114.18C221.536 119.642 217.839 123.03 212.201 123C212.177 123.127 212.143 123.249 212.109 123.366ZM213.442 113.037C213.111 111.756 212.975 110.384 212.416 109.216C210.679 105.599 209.059 101.88 206.9 98.5264C199.881 87.6474 190.425 79.0318 180.23 71.2827C176.766 68.6493 172.486 67.082 168.522 65.1447C167.437 64.6141 166.163 64.4097 164.947 64.2247C163.122 63.9521 162.651 64.4243 163.001 66.2594C163.254 67.5931 163.585 68.9852 164.227 70.1583C166.07 73.5266 167.841 76.9729 170.083 80.0686C177.943 90.9525 187.536 100.133 198.514 107.823C201.286 109.766 204.307 111.386 207.328 112.939C208.748 113.669 210.416 113.942 212.002 114.317C212.917 114.541 213.437 114.083 213.442 113.037Z" fill="white" fill-opacity="0.4"/>
<path d="M93.0597 61.4755C98.0697 60.7064 103.002 60.2537 107.613 58.2872C107.851 58.185 108.061 58.0098 108.275 57.8491C110.4 56.2575 112.346 56.4473 113.82 58.6669C115.133 60.648 116.164 62.8189 117.361 64.8779C118.037 66.0412 118.801 67.151 119.744 68.6308C120.002 67.5356 120.133 66.859 120.323 66.197C122.434 58.8567 125.669 52.086 130.479 46.1037C131.963 44.2638 133.85 43.8403 136.049 44.1518C138.671 44.5218 141.287 44.9647 143.924 45.2032C145.417 45.3347 146.94 45.1205 148.447 45.0621C148.462 44.9355 148.477 44.809 148.491 44.6824C148.306 44.512 148.131 44.3368 147.937 44.1762C136.555 34.6796 129.365 22.6762 126.501 8.1222C126.175 6.4575 126.286 4.69544 126.311 2.98206C126.321 2.34441 126.578 1.68242 126.846 1.08858C127.639 -0.673478 129.21 -1.60318 130.839 -1.3452C132.454 -1.09209 133.31 0.149144 133.729 2.15944C134.536 6.04375 135.334 9.94753 136.496 13.7296C137.172 15.9298 138.311 18.0861 139.658 19.9601C143.564 25.3826 147.888 30.4692 152.932 34.8986C156.011 37.6001 159.377 39.8441 163.127 41.5088C163.852 41.83 164.577 42.1805 165.219 42.638C166.552 43.5872 167.208 44.9112 166.858 46.5516C166.513 48.1968 165.389 49.1703 163.76 49.4331C160.797 49.9102 157.811 50.2558 154.849 50.7376C153.282 50.9956 151.736 51.385 150.194 51.7842C145.908 52.9037 141.657 52.1492 137.435 51.4629C135.791 51.1952 134.808 51.6089 133.938 52.9718C130.168 58.8762 127.162 65.0775 126.184 72.1062C126.155 72.3253 126.126 72.5443 126.082 72.7633C125.333 76.6622 123.222 77.5968 119.545 76.0733C116.471 74.8028 114.316 72.6757 112.647 69.9499C111.568 68.1781 110.595 66.3382 109.612 64.5128C109.277 63.8898 109.004 63.6367 108.187 63.8752C103.055 65.3549 97.9238 66.8444 92.7435 68.1343C88.8571 69.1029 86.4639 67.4772 85.8024 63.5101C85.243 60.1564 84.9706 56.7539 84.4648 53.3905C84.2361 51.8718 83.8227 50.3677 83.3509 48.9026C82.2905 45.6121 84.1924 43.0226 87.6216 42.9934C90.433 42.969 93.2396 42.6867 96.0462 42.5894C96.9996 42.5553 98.0454 42.5212 98.8966 42.8619C99.5095 43.1102 100.156 43.9377 100.259 44.5851C100.346 45.1546 99.85 46.1475 99.3344 46.4153C97.3936 47.4228 95.3604 48.2601 93.3223 49.0486C92.3835 49.4137 92.082 49.8517 92.1939 50.8934C92.5149 53.8821 92.6949 56.8854 92.9283 59.8789C92.9624 60.3511 93.0062 60.8232 93.0597 61.4755Z" fill="white" fill-opacity="0.4"/>
<path d="M28.2598 99.3113C28.6343 99.1799 28.7754 99.1653 28.8775 99.0923C35.8332 94.2101 43.8104 91.2652 51.2476 87.2836C52.6145 86.5486 54.2196 86.13 55.7616 85.8866C57.5126 85.6091 59.1178 86.203 60.1003 87.819C61.0829 89.435 60.9078 91.1387 59.8134 92.5503C58.8308 93.8207 57.6537 95.0376 56.3258 95.9235C54.0542 97.4421 51.6611 98.8051 49.2096 100.012C43.9174 102.616 38.922 105.678 34.2135 109.231C32.4527 110.56 30.6043 111.792 28.6927 112.882C27.5642 113.525 26.2655 114.002 24.9862 114.216C21.6932 114.771 18.6629 112.882 17.6317 109.704C17.2961 108.667 17.1453 107.542 17.0918 106.452C16.3865 92.1609 16.8972 77.9184 18.4148 63.6857C19.373 54.6807 19.8108 45.6173 20.5015 36.5831C20.6183 35.0888 20.769 33.5847 21.0366 32.1098C21.1922 31.258 21.4841 30.3819 21.9218 29.6371C23.0017 27.8021 24.6555 26.8724 26.8054 27.1449C28.9602 27.4175 30.3806 28.7172 30.8864 30.7859C31.1929 32.0514 31.2756 33.4192 31.2026 34.7286C30.7454 42.9791 30.3027 51.2345 29.6947 59.4801C28.7559 72.1796 27.7442 84.8693 28.1674 97.6223C28.1868 98.1431 28.2257 98.6542 28.2598 99.3113Z" fill="white" fill-opacity="0.4"/>
<path d="M616.829 110.546C619.942 108.56 622.845 106.7 625.988 104.695C625.988 107.941 626.012 110.881 625.954 113.821C625.949 114.148 625.492 114.522 625.17 114.775C623.166 116.367 621.046 117.832 619.144 119.541C617.782 120.767 616.634 122.262 615.505 123.722C613.74 126.01 611.322 126.944 608.895 126.136C606.624 125.382 605.111 123.308 605.033 120.646C604.975 118.704 605.087 116.757 605.082 114.814C605.072 97.5978 606.619 80.4786 608.151 63.3497C609.158 52.0862 609.761 40.7837 610.549 29.5008C610.617 28.5321 610.636 27.544 610.875 26.6143C611.429 24.4677 612.879 23.2313 615.077 22.9344C618.657 22.4428 622.237 21.9804 625.983 21.4839C625.983 22.9296 626.027 24.5358 625.944 26.1421C625.929 26.4342 625.457 26.8236 625.117 26.955C623.595 27.5489 622.023 28.0161 620.52 28.6441C620.117 28.8144 619.645 29.3937 619.625 29.7977C619.139 41.1439 618.682 52.4902 618.278 63.8365C617.928 73.7273 617.651 83.6231 617.334 93.514C617.174 98.547 616.989 103.58 616.824 108.618C616.814 109.183 616.829 109.738 616.829 110.546Z" fill="white" fill-opacity="0.4"/>
<path d="M513.553 130.123C513.417 134.392 512.221 138.359 509.828 141.859C504.676 149.379 497.925 154.734 488.829 156.724C488.313 156.836 487.783 156.963 487.263 156.968C485.697 156.982 484.198 156.982 482.647 157.586C481.144 158.17 479.607 157.416 478.605 156.208C477.316 154.656 475.905 153.054 475.166 151.229C472.082 143.611 469.183 135.92 466.328 128.215C465.613 126.288 465.17 124.224 464.917 122.184C464.795 121.201 465.258 120.057 465.724 119.118C466.031 118.504 466.761 118.018 467.407 117.672C474.173 114.08 481.29 111.622 489.043 111.792C495.649 111.943 501.714 114.07 507.157 117.813C511.442 120.758 513.471 124.954 513.553 130.123ZM485.843 150.236C487.774 149.194 489.768 148.158 491.723 147.057C495.323 145.033 498.664 142.662 501.573 139.707C503.932 137.308 505.537 134.524 505.99 131.145C506.442 127.758 505.411 125.032 502.342 123.279C498.158 120.894 493.693 119.419 488.839 119.575C484.208 119.726 479.767 120.909 475.443 122.53C475.375 122.554 475.336 122.661 475.409 122.564C478.887 131.793 482.331 140.919 485.843 150.236Z" fill="white" fill-opacity="0.4"/>
<path d="M603.807 174.918C602.231 176.135 600.928 177.279 599.493 178.219C596.151 180.414 592.736 179.392 591.35 175.629C590.659 173.755 590.3 171.686 590.197 169.686C590.032 166.468 590.197 163.236 590.222 160.009C590.227 159.62 590.222 159.235 590.222 158.612C589.677 158.933 589.249 159.133 588.884 159.406C581.997 164.541 573.411 159.07 572.974 151.54C572.565 144.535 573.786 137.711 575.727 131.008C575.848 130.59 576.062 130.186 576.296 129.816C577.055 128.589 578.275 128.015 579.545 128.253C580.795 128.492 581.875 129.485 581.967 130.906C582.079 132.702 581.996 134.527 581.851 136.324C581.554 139.979 581.082 143.62 580.844 147.28C580.746 148.799 580.849 150.401 581.223 151.871C581.812 154.183 583.32 154.684 585.275 153.35C587.133 152.08 588.923 150.702 590.737 149.369C591.199 149.028 591.637 148.658 592.099 148.312C593.559 147.232 595.134 146.823 596.808 147.728C598.476 148.634 599.045 150.196 598.909 151.992C598.671 155.122 598.325 158.242 598.058 161.372C597.844 163.884 597.659 166.395 597.494 168.912C597.44 169.686 597.484 170.46 597.484 171.239C597.635 171.312 597.781 171.385 597.931 171.458C599.405 169.963 600.908 168.498 602.343 166.965C603.277 165.967 604.07 164.838 604.989 163.82C606.147 162.54 607.592 161.951 609.289 162.526C610.977 163.095 611.95 164.439 611.955 166.137C611.969 169.311 611.775 172.49 611.595 175.663C611.322 180.428 610.933 185.189 610.714 189.954C610.646 191.39 610.938 192.855 611.152 194.291C611.39 195.868 612.373 196.876 613.827 197.484C616.24 198.497 618.677 198.341 621.094 197.606C622.69 197.119 624.241 196.482 625.992 195.849C625.992 197.611 626.012 199.349 625.968 201.086C625.963 201.31 625.676 201.641 625.448 201.724C621.162 203.272 616.814 204.353 612.227 203.179C607.11 201.875 604.196 198.677 603.793 192.782C603.418 187.336 603.729 181.84 603.744 176.369C603.739 175.941 603.778 175.522 603.807 174.918Z" fill="white" fill-opacity="0.4"/>
<path d="M328.702 -46.2484C331.747 -46.3945 334.792 -46.5989 337.837 -46.6573C339.325 -46.6865 340.853 -46.5989 342.297 -46.2825C344.121 -45.8785 344.632 -44.7882 344.997 -42.9969C345.566 -40.1786 344.905 -37.5501 344.19 -34.907C342.448 -28.5111 340.819 -22.0762 338.824 -15.7581C337.623 -11.9468 335.93 -8.27179 334.233 -4.64547C333.79 -3.70116 332.594 -2.86393 331.557 -2.47453C324.378 0.236702 316.479 -1.81253 311.415 -7.60006C307.704 -11.8446 305.943 -16.9166 305.243 -22.4266C304.406 -28.9881 304.921 -35.3938 307.431 -41.5707C308.171 -43.3863 309.445 -44.2333 311.381 -44.9975C315.749 -46.7303 320.161 -46.2095 324.587 -46.2923C325.954 -46.3215 327.326 -46.2971 328.697 -46.2971C328.702 -46.2874 328.702 -46.2679 328.702 -46.2484ZM337.375 -40.2516C334.476 -39.945 331.679 -39.6091 328.877 -39.356C324.047 -38.9179 319.207 -38.5431 314.377 -38.0856C314.066 -38.0564 313.619 -37.5599 313.55 -37.2191C312.787 -33.1693 312.3 -29.0806 312.884 -24.9675C313.619 -19.8079 315.365 -15.1204 319.567 -11.6839C321.552 -10.063 323.862 -9.44974 326.363 -9.6055C326.781 -9.62984 327.403 -10.1069 327.54 -10.5109C330.784 -20.134 333.975 -29.7766 337.176 -39.4193C337.253 -39.6529 337.292 -39.9012 337.375 -40.2516Z" fill="white" fill-opacity="0.4"/>
<path d="M30.8816 -3.8711C28.396 -2.52765 26.0321 -1.23774 23.6535 0.0180893C22.9142 0.407494 22.1505 0.792027 21.3528 1.01593C19.8935 1.42481 18.4197 0.85531 17.5928 -0.2983C16.7805 -1.43731 16.7465 -3.03387 17.588 -4.2897C17.9528 -4.83 18.4197 -5.32649 18.9159 -5.74997C19.6212 -6.34868 20.3605 -6.92305 21.1534 -7.3952C29.5245 -12.4137 37.9103 -17.4126 46.2863 -22.4165C50.3041 -24.8162 54.3121 -27.2305 58.3347 -29.6253C58.9768 -30.0099 59.6286 -30.409 60.3241 -30.667C62.2844 -31.3923 64.3127 -30.7935 65.4266 -29.2457C66.5454 -27.688 66.5405 -25.5366 65.1688 -23.9644C64.2544 -22.913 63.0967 -22.0514 61.9828 -21.1996C60.937 -20.4013 59.7988 -19.7296 58.5779 -18.9216C59.006 -18.5857 59.3367 -18.318 59.6724 -18.06C66.6037 -12.7933 67.5766 -3.93924 61.9439 2.7001C56.7539 8.82349 47.2397 11.2086 39.8267 8.13717C34.7389 6.02952 31.6015 2.3253 31.0616 -3.32106C31.0616 -3.44275 30.9935 -3.55957 30.8816 -3.8711ZM46.9283 2.69037C51.3401 2.73418 55.5573 0.470764 57.5175 -2.9852C59.7891 -6.98633 58.4028 -11.0897 54.1078 -12.6862C52.5999 -13.246 50.9461 -13.431 49.3458 -13.723C48.9907 -13.7863 48.5384 -13.6695 48.2125 -13.4894C44.7979 -11.6446 41.3881 -9.78031 38.0027 -7.88683C37.7206 -7.7262 37.4044 -7.30271 37.4093 -7.00579C37.4287 -0.230154 41.6021 2.45186 46.9283 2.69037Z" fill="white" fill-opacity="0.4"/>
<path d="M82.8499 -30.0505C82.8354 -33.2631 83.852 -35.1907 85.997 -36.393C87.1401 -37.0355 88.3999 -37.5222 89.6597 -37.8922C96.1631 -39.81 102.443 -42.2535 108.45 -45.4126C110.128 -46.2936 111.869 -47.0773 113.635 -47.7587C114.559 -48.114 115.605 -48.3185 116.592 -48.299C118.455 -48.2601 119.915 -47.0237 120.406 -45.3347C120.883 -43.704 120.328 -41.9371 118.908 -40.8371C118.319 -40.3844 117.648 -40.0193 116.977 -39.698C109.734 -36.2129 102.496 -32.718 95.2243 -29.2912C94.1347 -28.7801 93.9158 -28.2496 94.1055 -27.0765C95.9685 -15.516 97.7342 -3.94585 99.5679 7.61946C99.8841 9.6249 100.497 11.5816 100.779 13.5919C100.983 15.0522 101.159 16.6196 100.837 18.0214C100.191 20.8495 97.2964 21.7792 94.8887 20.1242C93.337 19.0582 92.5198 17.4909 92.155 15.7239C91.5081 12.6087 91.0557 9.4594 90.4039 6.34417C88.4923 -2.7825 86.498 -11.8897 84.5767 -21.0115C83.9006 -24.2533 83.3315 -27.5194 82.8499 -30.0505Z" fill="white" fill-opacity="0.4"/>
<path d="M182.477 32.4882C178.376 31.8116 172.778 30.9938 167.228 29.9278C163.424 29.1977 159.664 28.1901 155.924 27.1582C154.717 26.8272 153.54 26.1701 152.524 25.4253C150.004 23.5903 149.664 20.5237 151.599 18.0851C152.066 17.501 152.626 16.9899 153.146 16.4496C159.217 10.1558 165.321 3.89614 171.333 -2.45602C172.982 -4.1986 174.607 -5.26946 177.01 -4.08178C177.297 -3.94062 177.7 -4.00389 178.046 -4.0185C180.522 -4.13045 182.423 -2.91842 183.323 -0.620939C183.435 -0.333754 183.566 -0.0368342 183.601 0.260087C184.505 8.03844 187.385 15.3349 189.121 22.9088C189.437 24.2815 189.724 25.6882 189.768 27.09C189.885 30.5801 187.468 32.7948 182.477 32.4882ZM174.461 5.31747C170.185 10.2434 165.988 15.0769 161.683 20.037C167.593 21.8964 173.556 22.5681 179.811 23.2009C177.987 17.1067 176.246 11.29 174.461 5.31747Z" fill="white" fill-opacity="0.4"/>
<path d="M425.338 131.062C426.267 130.273 426.957 129.602 427.731 129.047C429.229 127.961 430.698 126.798 432.322 125.931C434.818 124.598 437.367 125.143 439.05 127.416C440.056 128.779 440.84 130.366 441.452 131.957C442.771 135.379 443.875 138.879 445.144 142.32C447.635 149.082 451.093 155.327 455.286 161.177C455.948 162.102 456.565 163.1 456.988 164.151C457.66 165.806 456.867 167.018 455.087 167.286C453.535 167.52 452.129 167.004 451.035 166.011C449.182 164.322 447.314 162.599 445.738 160.652C439.964 153.53 436.311 145.338 433.967 136.523C433.753 135.715 433.495 134.912 433.251 134.114C433.232 134.046 433.135 134.002 432.911 133.802C431.851 134.966 430.771 136.114 429.73 137.297C428.942 138.193 428.256 139.181 427.429 140.038C424.866 142.676 421.242 142.832 418.756 140.12C417.36 138.597 416.271 136.674 415.468 134.751C413.24 129.412 412.248 123.741 411.451 118.036C411.285 116.853 411.11 115.666 411.071 114.478C410.993 112.142 412.146 110.277 414.067 109.46C416.081 108.603 418.538 109.012 419.963 110.861C421.013 112.224 421.903 113.87 422.312 115.525C423.217 119.209 423.766 122.977 424.477 126.71C424.725 128.088 425.012 129.451 425.338 131.062Z" fill="white" fill-opacity="0.4"/>
<path d="M456.103 64.6489C460.822 64.7268 465.905 66.0216 470.555 68.8399C473.05 70.3537 475.482 71.9649 477.987 73.4543C480.409 74.8951 482.097 77.0466 483.77 79.2175C484.437 80.0791 484.019 80.7995 483.24 81.3544C481.518 82.5713 479.568 82.7805 477.666 82.1332C474.412 81.0234 471.245 79.6556 468.02 78.4582C465.754 77.6161 463.492 76.7059 461.152 76.1071C452.82 73.98 439.911 80.376 436.554 88.5243C435.275 91.6298 435.139 94.4821 437.216 97.2712C438.106 98.4638 437.853 98.9359 436.355 99.0966C432.663 99.4908 429.75 97.6947 428.392 94.1025C426.943 90.262 427.137 86.3825 428.271 82.5128C429.18 79.4025 430.752 76.6426 433.023 74.3402C439.176 68.1 446.594 64.7463 456.103 64.6489Z" fill="white" fill-opacity="0.4"/>
<path d="M354.059 71.4238C354.273 64.2734 354.443 57.1181 354.72 49.9677C354.91 45.0855 356.583 43.2261 361.389 42.4424C367.532 41.4446 373.69 40.5392 379.839 39.5803C380.622 39.4586 381.395 39.259 382.164 39.0546C386.172 37.9935 390.301 40.6512 389.655 45.6209C388.959 50.9947 388.755 56.4366 388.424 61.8542C388.341 63.2074 388.604 64.5849 388.687 65.9478C388.837 68.5276 387.86 70.2118 385.36 70.8057C382.495 71.4871 379.532 71.7548 376.628 72.3C371.511 73.2589 366.409 74.2908 361.297 75.2935C360.343 75.4785 359.4 75.7365 358.437 75.8241C355.538 76.0967 353.704 74.3249 354.059 71.4238ZM381.235 44.8372C378.953 45.397 376.711 45.9568 374.469 46.4971C370.65 47.4171 366.837 48.3565 363.004 49.218C362.021 49.442 361.666 49.8314 361.642 50.8828C361.501 56.534 361.267 62.1804 361.068 67.8316C361.058 68.1626 361.068 68.4936 361.068 68.7613C368.029 67.7586 374.863 66.7753 381.6 65.8018C381.478 62.2388 381.308 58.7585 381.249 55.2782C381.186 51.8076 381.235 48.337 381.235 44.8372Z" fill="white" fill-opacity="0.4"/>
<path d="M148.199 100.61C148.005 107.357 146.229 113.495 142.776 119.093C141.915 120.49 140.675 121.711 139.405 122.772C137.853 124.067 136.37 123.843 134.93 122.446C134.74 122.261 134.556 122.057 134.332 121.93C127.994 118.47 125.338 112.701 124.832 105.906C124.127 96.4438 127.06 87.9597 132.712 80.4004C133.909 78.799 135.952 78.3511 138.126 79.0521C140.242 79.7287 141.793 81.15 143.024 82.9266C145.855 87.0203 147.168 91.6736 147.839 96.5363C148.029 97.9382 148.092 99.3498 148.199 100.61ZM136.934 88.0424C134.92 94.3605 133.155 100.44 134.4 106.933C134.784 108.924 135.504 110.798 136.735 112.507C140.966 106.262 141.117 93.9225 136.934 88.0424Z" fill="white" fill-opacity="0.4"/>
<path d="M114.802 -8.82097C115.425 7.15434 115.746 23.1491 118.475 38.9736C118.737 40.502 118.65 42.1618 118.368 43.6951C118.037 45.5155 116.806 46.7762 114.885 47.0586C112.895 47.3555 111.363 46.4452 110.517 44.7319C109.846 43.3689 109.398 41.8503 109.101 40.3511C106.859 29.0535 105.945 17.6001 105.074 6.13703C104.607 -0.0204277 103.683 -6.14382 102.866 -12.2721C102.467 -15.2656 103.644 -17.8308 106.149 -18.8141C108.683 -19.8119 111.504 -18.7703 113.105 -16.1953C114.501 -13.9514 114.841 -11.4202 114.802 -8.82097Z" fill="white" fill-opacity="0.4"/>
<path d="M37.1465 71.3849C37.8128 67.8316 38.5376 64.288 39.1262 60.7201C39.6223 57.7168 40.0503 54.6989 40.347 51.6713C40.7508 47.5777 43.3725 45.9081 47.3611 46.9449C52.736 48.3419 57.2207 51.17 61.2822 54.8158C62.9263 56.2906 64.6531 57.6827 66.1804 59.2744C67.0073 60.136 67.7223 61.2555 68.0726 62.3848C68.8119 64.7845 67.2797 67.1647 64.8428 67.7635C58.3054 69.36 52.3031 72.1783 46.5683 75.6392C45.7754 76.1162 45.0117 76.6516 44.1848 77.0751C40.9307 78.7398 37.8226 77.041 37.448 73.4147C37.3799 72.7576 37.3653 72.0907 37.3264 71.4336C37.2729 71.4093 37.2097 71.3947 37.1465 71.3849Z" fill="white" fill-opacity="0.4"/>
<path d="M252.481 96.6521C251.518 96.5353 250.545 96.4769 249.592 96.2968C241.43 94.7489 237.436 87.175 241.537 79.9613C245.36 73.2294 250.881 68.2256 259.199 67.6317C260.507 67.5393 261.859 67.6074 263.148 67.8362C270.96 69.2234 274.759 76.0477 271.889 83.4416C269.009 90.8597 260.429 96.6813 252.481 96.6521ZM260.916 77.0018C257.987 77.0359 255.628 78.2235 253.182 79.2701C251.362 80.0489 250.419 81.368 249.733 83.0278C248.634 85.6855 249.65 87.3259 252.525 87.3356C256.937 87.3453 260.59 85.6125 263.328 82.1273C264.175 81.0467 264.987 79.7666 264.238 78.3598C263.518 77.0066 262.054 77.0553 260.916 77.0018Z" fill="white" fill-opacity="0.4"/>
<path d="M82.0862 87.2676C82.023 84.5467 83.098 82.9306 85.5446 82.2589C88.8182 81.3584 92.155 80.6867 95.448 79.8543C97.9725 79.2167 100.468 78.4768 102.983 77.7953C105.658 77.0701 106.65 77.7029 107.895 80.1318C109.194 82.6629 109.89 85.2963 110.25 88.0805C110.347 88.8447 110.765 89.5748 111.038 90.3147C111.821 92.4224 110.901 94.384 108.795 95.0849C102.686 97.1293 96.5813 99.1688 90.472 101.208C89.9272 101.388 89.3824 101.578 88.8231 101.7C86.0019 102.303 83.8276 100.989 83.385 98.1271C82.811 94.4229 82.4802 90.6749 82.0862 87.2676ZM89.9126 94.4619C94.0569 93.0649 98.0114 91.7312 101.985 90.3877C101.431 88.5527 100.915 86.8393 100.375 85.048C100.122 85.048 99.7965 84.9799 99.5193 85.0577C96.1727 86.0264 92.8262 87.0096 89.4992 88.0367C89.29 88.1 89.0565 88.5916 89.0906 88.8496C89.3143 90.6457 89.6062 92.4272 89.9126 94.4619Z" fill="white" fill-opacity="0.4"/>
<path d="M163.337 131.52C163.307 137.234 161.561 142.209 157.062 145.972C156.152 146.736 155.194 147.471 154.177 148.079C152.791 148.907 151.512 148.352 150.393 147.447C147.227 144.891 145.475 141.484 144.634 137.565C144.041 134.791 144.483 132.119 145.529 129.515C147.275 125.187 150.194 121.712 153.555 118.601C155.841 116.489 159.246 117.482 160.277 120.412C160.496 121.035 160.768 121.644 161.075 122.228C162.806 125.513 163.375 127.825 163.337 131.52ZM154.8 125.036C150.792 130.259 150.019 135.38 152.815 139.138C156.138 134.903 157.008 128.935 154.8 125.036Z" fill="white" fill-opacity="0.4"/>
<path d="M334.266 141.668C326.484 140.11 320.092 137.165 316.036 130.516C313.472 126.316 311.969 121.696 311.342 116.814C311.016 114.254 312.042 112.341 314.027 111.616C315.997 110.895 318.176 111.664 319.533 113.704C320.19 114.687 320.7 115.782 321.172 116.877C321.868 118.503 322.495 120.158 323.103 121.818C324.971 126.905 328.206 130.823 332.822 133.69C335.064 135.082 337.151 136.737 339.257 138.338C340.21 139.064 339.495 139.852 338.883 140.115C337.292 140.782 335.609 141.23 334.266 141.668Z" fill="white" fill-opacity="0.4"/>
<path d="M625.993 -2.24098C625.993 1.21011 626.012 4.56386 625.964 7.9176C625.959 8.23399 625.589 8.74022 625.287 8.83271C618.02 11.0377 610.758 13.2476 603.452 15.3212C602.329 15.6376 600.972 15.4915 599.809 15.2092C598.223 14.8247 597.285 13.6029 597.119 11.9479C596.949 10.2784 597.664 8.91059 599.152 8.23886C607.762 4.35942 616.216 0.0711093 625.448 -2.23611C625.574 -2.26532 625.711 -2.24098 625.993 -2.24098Z" fill="white" fill-opacity="0.4"/>
<path d="M529.493 109.547C528.831 114.537 530.899 118.377 534.722 121.322C537.193 123.225 539.834 124.914 542.461 126.603C543.263 127.119 543.453 127.65 542.646 128.02C541.274 128.648 539.79 129.378 538.336 129.431C531.108 129.694 522.236 122.86 520.509 115.87C519.799 112.984 519.648 110.039 520.747 107.255C521.287 105.882 522.207 104.451 523.35 103.56C525.942 101.545 529.269 103.234 529.483 106.505C529.551 107.513 529.493 108.53 529.493 109.547Z" fill="white" fill-opacity="0.4"/>
<path d="M211.905 -6.3735C211.934 -3.51624 211.593 -0.722267 210.407 1.91108C209.448 4.04307 208.145 5.93168 206.087 7.1437C204.244 8.23404 202.298 8.46768 200.489 7.1145C198.713 5.79052 198.378 3.86784 198.932 1.86727C199.341 0.392405 199.988 -1.03865 200.698 -2.40157C202.785 -6.4027 203.869 -10.6131 203.709 -15.1448C203.631 -17.2914 204.399 -18.4937 205.927 -18.8977C207.474 -19.3066 209.079 -18.4742 209.915 -16.571C211.336 -13.3341 211.851 -9.89274 211.905 -6.3735Z" fill="white" fill-opacity="0.4"/>
<path d="M293.452 21.0846C293.904 20.9045 294.405 20.7584 294.848 20.5151C297.791 18.899 300.714 17.2538 303.652 15.6281C304.927 14.9223 306.172 14.1434 307.509 13.5788C308.375 13.2137 309.392 12.9996 310.321 13.0482C312.106 13.1407 312.957 14.9904 311.907 16.4458C311.406 17.1419 310.7 17.76 309.956 18.1981C304.552 21.3766 299.114 24.5113 293.676 27.6363C293.068 27.9868 292.416 28.2837 291.75 28.5076C289.293 29.3351 286.744 28.0598 286.613 25.4995C286.428 21.8585 286.647 18.1786 286.978 14.5426C287.143 12.7221 288.89 11.6756 290.529 11.8703C292.202 12.0699 293.384 13.3938 293.438 15.2776C293.496 17.1662 293.452 19.0548 293.452 21.0846Z" fill="white" fill-opacity="0.4"/>
<path d="M621.654 140.418C621.479 146.468 615.856 150.679 610.325 148.848C606.76 147.666 603.486 142.866 605.797 138.422C607.431 135.278 609.921 133.136 613.322 132.187C616.391 131.33 619.28 132.732 620.462 135.696C621.055 137.195 621.269 138.841 621.654 140.418ZM614.45 139.955C613.336 141.148 612.451 142.102 611.439 143.192C613.54 143.552 614.766 142.258 614.45 139.955Z" fill="white" fill-opacity="0.4"/>
<path d="M221.336 65.6999C220.753 69.224 220.208 72.7481 219.561 76.2576C219.415 77.0559 219.016 77.8541 218.559 78.5405C217.445 80.2246 215.83 81.0424 213.797 80.7552C211.759 80.4631 210.368 79.2219 209.901 77.27C209.594 75.9753 209.58 74.5491 209.74 73.2154C210.125 70.0174 210.66 66.8389 211.18 63.6604C211.73 60.2871 213.7 58.3888 216.38 58.5689C219.045 58.749 220.874 60.9345 221.074 64.2104C221.103 64.6923 221.079 65.179 221.079 65.6658C221.166 65.6755 221.249 65.6853 221.336 65.6999Z" fill="white" fill-opacity="0.4"/>
<path d="M203.466 36.8447C202.819 43.5278 199.934 49.291 194.696 53.7594C193.373 54.8887 191.563 55.5166 189.885 56.1348C188.659 56.5875 187.38 56.2224 186.597 55.059C185.799 53.8714 186.106 52.6447 186.923 51.608C188.319 49.841 189.836 48.1666 191.247 46.4094C192.823 44.4429 194.37 42.4569 195.853 40.4223C196.982 38.8744 197.828 37.1854 197.979 35.2092C198.018 34.6981 198.246 34.1821 198.48 33.71C198.981 32.6878 199.745 31.9917 200.98 32.1134C202.274 32.24 202.921 33.1161 203.188 34.2649C203.363 35.0291 203.363 35.8371 203.466 36.8447Z" fill="white" fill-opacity="0.4"/>
<path d="M409.174 65.7002C404.32 65.7343 401.688 61.8889 403.357 57.1674C403.853 55.7655 404.398 54.3831 404.977 53.0105C406.125 50.2798 409.782 48.8098 412.978 49.759C417.351 51.0635 419.384 55.269 417.691 59.5087C416.271 63.0571 412.667 65.6759 409.174 65.7002ZM409.928 54.4026C409.919 54.5535 409.914 54.6995 409.904 54.8504C409.729 55.3031 409.612 56.116 409.369 56.1549C407.744 56.4226 407.788 57.7466 407.555 58.8467C407.204 60.5357 408.08 61.3486 409.792 61.0322C411.46 60.7256 413.396 58.8418 413.499 57.1284C413.537 56.4713 413.124 55.5075 412.599 55.1619C411.864 54.68 410.833 54.6362 409.928 54.4026Z" fill="white" fill-opacity="0.4"/>
<path d="M275.98 28.946C275.98 30.0022 276.214 31.1266 275.936 32.1099C275.246 34.5485 273.149 35.2641 270.936 35.5659C266.169 36.2181 261.295 30.9222 262.37 26.2299C263.032 23.3483 264.958 21.5278 267.803 20.8658C270.571 20.2233 272.702 21.4207 274.321 23.6306C275.474 25.2077 276.038 26.9941 275.98 28.946ZM269.428 26.6534C269.248 26.6631 269.068 26.6728 268.888 26.6874C268.737 27.1985 268.353 27.7924 268.494 28.2061C268.713 28.8535 269.175 29.5788 269.739 29.9098C270.357 30.2748 270.737 29.6372 270.542 29.0531C270.27 28.2207 269.807 27.4516 269.428 26.6534Z" fill="white" fill-opacity="0.4"/>
<path d="M464.494 44.5513C465.89 45.5053 467.208 46.3766 468.497 47.2869C469.864 48.2555 470.987 49.4189 471.265 51.1663C471.459 52.3978 471.153 53.4784 470.039 54.1501C468.974 54.7926 467.908 54.5882 466.931 53.8921C464.105 51.877 461.264 49.8764 458.477 47.798C457.83 47.3161 457.212 46.6492 456.872 45.9288C456.147 44.3858 456.906 42.8331 458.56 41.8352C461.994 39.7714 465.398 37.654 468.813 35.556C469.003 35.4392 469.183 35.3078 469.377 35.2105C470.618 34.5777 471.912 34.8405 472.544 35.8578C473.186 36.88 472.879 38.1213 471.746 38.9877C469.713 40.5453 467.67 42.0883 465.632 43.6411C465.291 43.9039 464.951 44.1814 464.494 44.5513Z" fill="white" fill-opacity="0.4"/>
<path d="M79.8195 18.1244C79.6249 19.9498 79.4401 21.7751 79.2358 23.6004C78.9586 26.0293 76.5411 27.5188 74.3425 26.3457C71.7451 24.9585 69.2595 23.323 66.8615 21.5999C65.3293 20.4998 65.2709 18.4019 66.7545 17.2191C69.3373 15.1552 72.0223 13.1985 74.7997 11.4072C76.5897 10.2536 79.3136 12.2152 79.6298 14.7902C79.766 15.8756 79.6541 16.9952 79.6541 18.0952C79.7076 18.1098 79.7611 18.1196 79.8195 18.1244Z" fill="white" fill-opacity="0.4"/>
<path d="M230.573 79.9089C230.369 83.2918 229.581 86.4363 228.107 89.4055C227.99 89.644 227.845 89.8679 227.699 90.0869C226.507 91.8685 224.766 92.7252 223.126 92.3309C221.404 91.9171 220.164 90.3498 220.125 88.1253C220.096 86.6407 220.368 85.1415 220.597 83.6666C220.869 81.924 221.288 80.2058 221.565 78.4632C222.017 75.6352 223.584 73.9997 225.928 74.0143C228.234 74.024 229.999 75.7422 230.423 78.4145C230.51 78.9256 230.53 79.4611 230.573 79.9089Z" fill="white" fill-opacity="0.4"/>
<path d="M20.5648 10.6835C20.1951 13.4726 19.0229 16.2131 15.8758 17.6928C13.3708 18.8756 10.4815 18.311 8.57961 16.3007C6.72151 14.3342 6.40534 11.7252 7.77216 9.19893C9.11466 6.71161 11.2451 5.20753 13.9739 4.64776C17.5101 3.92249 20.5745 6.57046 20.5648 10.6835ZM14.8397 12.1487C14.6792 11.9832 14.5187 11.8177 14.363 11.6522C13.9301 12.0659 13.4924 12.4797 13.0595 12.8934C13.2492 13.0492 13.5702 13.3607 13.6042 13.3315C14.0372 12.9616 14.436 12.5478 14.8397 12.1487Z" fill="white" fill-opacity="0.4"/>
<path d="M190.508 135.19C190.109 135.034 189.33 134.839 188.659 134.46C183.022 131.257 178.663 126.686 174.957 121.444C173.926 119.984 174.13 118.333 175.317 117.394C176.504 116.455 178.133 116.654 179.306 118.051C183.046 122.51 187.356 126.321 192.142 129.612C193.601 130.614 194.092 131.933 193.621 133.243C193.173 134.513 192.22 135.112 190.508 135.19Z" fill="white" fill-opacity="0.4"/>
<path d="M396.172 -6.54311C396.027 -2.54197 395.205 0.928591 393.882 4.28234C392.247 8.41976 389.071 10.8341 384.936 12.1094C383.151 12.6643 382.135 11.6956 382.679 9.8849C382.923 9.07689 383.506 8.35649 384.017 7.65069C384.323 7.22721 384.737 6.85729 385.17 6.56036C389.776 3.39645 391.085 -1.36402 391.561 -6.53823C391.629 -7.28297 391.663 -8.04718 391.839 -8.76758C392.092 -9.80437 392.768 -10.5053 393.886 -10.515C395.01 -10.5248 395.71 -9.8433 395.934 -8.78704C396.119 -7.93522 396.124 -7.04446 396.172 -6.54311Z" fill="white" fill-opacity="0.4"/>
<path d="M70.8257 53.6085C70.4025 53.4625 69.5853 53.2532 68.846 52.8979C65.7524 51.4133 63.3884 49.0184 61.2093 46.4532C59.8668 44.8761 60.037 42.7344 61.3649 41.3764C62.7074 40.0086 64.9303 39.8772 66.555 41.1768C67.27 41.7463 67.8585 42.4862 68.4374 43.2066C69.8237 44.9248 71.1856 46.6577 72.5232 48.4149C72.9464 48.9698 73.3501 49.5782 73.5982 50.2207C74.3376 52.1239 73.2723 53.5988 70.8257 53.6085Z" fill="white" fill-opacity="0.4"/>
<path d="M341.222 52.4702C340.853 52.3874 340.142 52.3047 339.491 52.0613C336.723 51.0343 333.96 50.0023 331.231 48.8877C329.368 48.1235 328.653 46.7849 329.135 45.3051C329.616 43.8157 331.202 42.886 333.016 43.4555C336.246 44.4631 339.398 45.714 342.574 46.8822C342.895 46.9991 343.178 47.2473 343.45 47.4663C344.651 48.4398 345.065 49.6665 344.603 50.8396C344.175 51.9104 343.017 52.5383 341.222 52.4702Z" fill="white" fill-opacity="0.4"/>
<path d="M594.488 41.2212C590.548 41.119 588.198 39.2158 588.32 36.2222C588.427 33.6521 590.932 31.3157 593.505 31.3741C596.535 31.4471 599.118 33.7154 599.099 36.2806C599.084 38.6365 596.618 41.2747 594.488 41.2212Z" fill="white" fill-opacity="0.4"/>
<path d="M403.761 96.6725C400.361 96.7894 397.695 94.0489 398.449 91.1089C399.251 87.9791 403.065 86.3923 405.881 87.945C407.798 89.0013 409.15 90.3691 409.067 92.7006C408.989 94.9154 407.54 96.3561 405.307 96.5411C404.826 96.5752 404.339 96.619 403.761 96.6725Z" fill="white" fill-opacity="0.4"/>
<path d="M377.324 32.9811C376.769 32.9129 376.244 32.9957 375.918 32.7815C375.3 32.3775 374.454 31.8713 374.337 31.2774C374.201 30.6106 374.629 29.7052 375.067 29.087C375.378 28.6392 376.083 28.3569 376.662 28.2303C379.06 27.69 381.463 27.14 383.895 26.7749C385.505 26.5316 386.527 27.2033 386.77 28.2693C387.023 29.3888 386.118 30.9367 384.805 31.3407C383.127 31.8567 381.41 32.2558 379.693 32.6452C378.885 32.8302 378.044 32.8837 377.324 32.9811Z" fill="white" fill-opacity="0.4"/>
<path d="M336.524 54.1831C338.207 54.2123 339.287 54.738 339.491 55.7261C339.69 56.6948 338.897 57.7656 337.336 58.1891C335.424 58.7148 333.469 59.0945 331.514 59.4109C330.191 59.625 329.189 58.929 328.936 57.863C328.658 56.685 329.276 55.4487 330.648 55.1225C332.574 54.6699 334.563 54.4849 336.524 54.1831Z" fill="white" fill-opacity="0.4"/>
<path d="M156.42 111.362C154.737 111.357 153.458 110.077 153.482 108.427C153.511 106.568 155.058 105.015 156.862 105.039C158.594 105.064 159.995 106.548 159.98 108.344C159.966 110.004 158.361 111.362 156.42 111.362Z" fill="white" fill-opacity="0.4"/>
<path d="M98.0017 114.25C98.1914 113.408 98.1525 112.663 98.5027 112.259C98.994 111.685 99.7577 111.057 100.439 111.013C101.061 110.974 102.058 111.519 102.326 112.079C103.119 113.734 103.357 115.55 102.516 117.297C101.723 118.938 100.05 119.093 99.1351 117.521C98.5319 116.499 98.3276 115.243 98.0017 114.25Z" fill="white" fill-opacity="0.4"/>
</g>
<defs>
<clipPath id="clip0_282_1670">
<rect width="625.884" height="435.185" fill="white" transform="translate(0.115997 -153.575)"/>
</clipPath>
</defs>
</svg>
